<svg xmlns="http://www.w3.org/2000/svg" version="1.1" xmlns:xlink="http://www.w3.org/1999/xlink" xmlns:svgjs="http://svgjs.com/svgjs" width="1440" height="560" preserveAspectRatio="none" viewBox="0 0 1440 560"><g mask="url(&quot;#SvgjsMask1010&quot;)" fill="none"><rect width="1440" height="560" x="0" y="0" fill="url(#SvgjsLinearGradient1011)"></rect><path d="M489.87 110.75 a12.31 12.31 0 1 0 24.62 0 a12.31 12.31 0 1 0 -24.62 0z" fill="#037b0b"></path><path d="M1361.27 550.96a0.97 0.97 0 1 0-1.4-1.35z" stroke="#e73635"></path><path d="M268.76 443.32 a11.98 11.98 0 1 0 23.96 0 a11.98 11.98 0 1 0 -23.96 0z" fill="#037b0b"></path><path d="M1278.42 476.35L1320.24 476.35L1320.24 484.87L1278.42 484.87z" stroke="#037b0b"></path><path d="M551.88 478.26a13.48 13.48 0 1 0 23.98 12.32z" fill="#037b0b"></path><path d="M1091.27 392.99 a55.02 55.02 0 1 0 110.04 0 a55.02 55.02 0 1 0 -110.04 0z" fill="#d3b714"></path><path d="M1027.79 190.36 a7.9 7.9 0 1 0 15.8 0 a7.9 7.9 0 1 0 -15.8 0z" fill="#d3b714"></path><path d="M1033.06 94.28 a23.26 23.26 0 1 0 46.52 0 a23.26 23.26 0 1 0 -46.52 0z" fill="#037b0b"></path><path d="M1449.17 359.63a18.6 18.6 0 1 0-35.45-11.31z" fill="#037b0b"></path><path d="M949.06 7.43L972.75 7.43L972.75 31.12L949.06 31.12z" fill="#d3b714"></path><path d="M446.02 253.67 a27.85 27.85 0 1 0 55.7 0 a27.85 27.85 0 1 0 -55.7 0z" fill="#037b0b"></path><path d="M451.69 498.99a54.21 54.21 0 1 0-107.8-11.54z" stroke="#e73635"></path><path d="M1170.92 122.98 a43.22 43.22 0 1 0 86.44 0 a43.22 43.22 0 1 0 -86.44 0z" stroke="#d3b714"></path><path d="M353.18 331.02a0.21 0.21 0 1 0-0.28-0.32z" stroke="#d3b714"></path><path d="M58.59 209.73L70.03 209.73L70.03 221.17L58.59 221.17z" fill="#e73635"></path><path d="M582.62 548.15L614.34 548.15L614.34 579.87L582.62 579.87z" stroke="#d3b714"></path><path d="M123.49 278.78a17.32 17.32 0 1 0-28.29-19.99z" stroke="#e73635"></path><path d="M1375.16 504.88L1384.02 504.88L1384.02 510.18L1375.16 510.18z" stroke="#e73635"></path><path d="M290 454.45 a47.08 47.08 0 1 0 94.16 0 a47.08 47.08 0 1 0 -94.16 0z" stroke="#037b0b"></path><path d="M397.19 142.42L409.45 142.42L409.45 166.19L397.19 166.19z" stroke="#d3b714"></path><path d="M39.66 347.98L51.05 347.98L51.05 380.44L39.66 380.44z" fill="#d3b714"></path><path d="M863.25 435.34a34.73 34.73 0 1 0 62.18 30.96z" fill="#d3b714"></path><path d="M465.13 110.23a24.65 24.65 0 1 0-48.64-8.05z" stroke="#e73635"></path><path d="M152.54 480.75L154.46 480.75L154.46 482.67L152.54 482.67z" stroke="#037b0b"></path><path d="M246.82 375.91 a14.53 14.53 0 1 0 29.06 0 a14.53 14.53 0 1 0 -29.06 0z" stroke="#e73635"></path><path d="M1141.38 212.83L1147.45 212.83L1147.45 251.01L1141.38 251.01z" fill="#d3b714"></path><path d="M883.66 406.83L916.14 406.83L916.14 439.31L883.66 439.31z" stroke="#037b0b"></path><path d="M1161.49 520.68L1161.73 520.68L1161.73 539.98L1161.49 539.98z" stroke="#d3b714"></path><path d="M118 326.94a19.88 19.88 0 1 0 8.45 38.86z" fill="#d3b714"></path><path d="M1140.97 226.13L1150.17 226.13L1150.17 244.66L1140.97 244.66z" fill="#037b0b"></path><path d="M1005.06 99.32 a18.89 18.89 0 1 0 37.78 0 a18.89 18.89 0 1 0 -37.78 0z" stroke="#e73635"></path><path d="M275.46 396.39L301.27 396.39L301.27 422.2L275.46 422.2z" stroke="#037b0b"></path><path d="M843.65 153.77a3.36 3.36 0 1 0 1.08 6.64z" stroke="#037b0b"></path></g><defs><mask id="SvgjsMask1010"><rect width="1440" height="560" fill="#ffffff"></rect></mask><linearGradient x1="15.28%" y1="-39.29%" x2="84.72%" y2="139.29%" gradientUnits="userSpaceOnUse" id="SvgjsLinearGradient1011"><stop stop-color="#0e2a47" offset="0"></stop><stop stop-color="#00459e" offset="1"></stop></linearGradient></defs></svg>